<?xml version="1.0" encoding="UTF-8" standalone="no"?>
<svg width="31px" height="30px" viewBox="0 0 31 30" version="1.1" xmlns="http://www.w3.org/2000/svg" xmlns:xlink="http://www.w3.org/1999/xlink">
    <!-- Generator: Sketch 41.2 (35397) - http://www.bohemiancoding.com/sketch -->
    <title>Logo-2CRev-CMYK-2in-TM</title>
    <desc>Created with Sketch.</desc>
    <defs></defs>
    <g id="Page-1" stroke="none" stroke-width="1" fill="none" fill-rule="evenodd">
        <g id="Light-Copy" transform="translate(-697.000000, -3094.000000)">
            <g id="Logo-2CRev-CMYK-2in-TM" transform="translate(697.000000, 3094.000000)">
                <path d="M28.2830346,0 L2.93560117,0 C1.72437078,0 0.740142802,0.968333333 0.740142802,2.16166667 L0.740142802,27.8354167 C0.740142802,29.0302083 1.72437078,30 2.93560117,30 L28.2830346,30 C29.4963305,30 30.4846895,29.0302083 30.4846895,27.8354167 L30.4846895,2.16166667 C30.4846895,0.968333333 29.4963305,0 28.2830346,0" id="Fill-10" fill="#0071A1"></path>
                <path d="M7.35708785,4.13020833 C8.76743593,4.13020833 9.91360194,5.28625 9.91360194,6.709375 C9.91360194,8.13375 8.76743593,9.28979167 7.35708785,9.28979167 C5.94322836,9.28979167 4.79871478,8.13375 4.79871478,6.709375 C4.79871478,5.28625 5.94322836,4.13020833 7.35708785,4.13020833 L7.35708785,4.13020833 Z M5.15026903,25.5639583 L9.56204769,25.5639583 L9.56204769,11.246875 L5.15026903,11.246875 L5.15026903,25.5639583 Z" id="Fill-12" fill="#FFFFFF"></path>
                <path d="M12.3292465,11.246875 L16.5604973,11.246875 L16.5604973,13.203125 L16.6195716,13.203125 C17.2086625,12.0777083 18.647515,10.8910417 20.7938136,10.8910417 C25.2611552,10.8910417 26.0859238,13.8564583 26.0859238,17.7110417 L26.0859238,25.5639583 L21.6772434,25.5639583 L21.6772434,18.6014583 C21.6772434,16.94125 21.6470866,14.805625 19.3849114,14.805625 C17.0892745,14.805625 16.736894,16.6141667 16.736894,18.4814583 L16.736894,25.5639583 L12.3292465,25.5639583 L12.3292465,11.246875" id="Fill-13" fill="#FFFFFF"></path>
            </g>
        </g>
    </g>
</svg>